<?xml version="1.0" encoding="UTF-8"?>
<svg xmlns="http://www.w3.org/2000/svg" xmlns:xlink="http://www.w3.org/1999/xlink" width="1350pt" height="374.999991pt" viewBox="0 0 1350 374.999991" version="1.2">
<defs>
<clipPath id="clip1">
  <path d="M 628.324219 144 L 692.074219 144 L 692.074219 262 L 628.324219 262 Z M 628.324219 144 "/>
</clipPath>
<clipPath id="clip2">
  <path d="M 1191 113 L 1224 113 L 1224 146 L 1191 146 Z M 1191 113 "/>
</clipPath>
<clipPath id="clip3">
  <path d="M 1170.363281 146 L 1245.363281 146 L 1245.363281 263 L 1170.363281 263 Z M 1170.363281 146 "/>
</clipPath>
<clipPath id="clip4">
  <path d="M 278.589844 145 L 342.339844 145 L 342.339844 263 L 278.589844 263 Z M 278.589844 145 "/>
</clipPath>
<clipPath id="clip5">
  <path d="M 104.453125 144 L 168.203125 144 L 168.203125 262 L 104.453125 262 Z M 104.453125 144 "/>
</clipPath>
<clipPath id="clip6">
  <path d="M 991.082031 145 L 1054.832031 145 L 1054.832031 263 L 991.082031 263 Z M 991.082031 145 "/>
</clipPath>
<clipPath id="clip7">
  <path d="M 1081.027344 145 L 1144.777344 145 L 1144.777344 263 L 1081.027344 263 Z M 1081.027344 145 "/>
</clipPath>
<clipPath id="clip8">
  <path d="M 899.160156 145 L 962.910156 145 L 962.910156 263 L 899.160156 263 Z M 899.160156 145 "/>
</clipPath>
<clipPath id="clip9">
  <path d="M 806.238281 145 L 869.988281 145 L 869.988281 263 L 806.238281 263 Z M 806.238281 145 "/>
</clipPath>
<clipPath id="clip10">
  <path d="M 715.316406 145 L 779.066406 145 L 779.066406 263 L 715.316406 263 Z M 715.316406 145 "/>
</clipPath>
<clipPath id="clip11">
  <path d="M 542.421875 145 L 606.171875 145 L 606.171875 263 L 542.421875 263 Z M 542.421875 145 "/>
</clipPath>
<clipPath id="clip12">
  <path d="M 454.5 145 L 518.25 145 L 518.25 263 L 454.5 263 Z M 454.5 145 "/>
</clipPath>
<clipPath id="clip13">
  <path d="M 365.574219 145 L 429.324219 145 L 429.324219 263 L 365.574219 263 Z M 365.574219 145 "/>
</clipPath>
<clipPath id="clip14">
  <path d="M 191.398438 145 L 255.148438 145 L 255.148438 263 L 191.398438 263 Z M 191.398438 145 "/>
</clipPath>
</defs>
<g id="surface1">
<g clip-path="url(#clip1)" clip-rule="nonzero">
<path style=" stroke:none;fill-rule:nonzero;fill:rgb(0%,76.078796%,79.60968%);fill-opacity:1;" d="M 634.148438 204.589844 C 636.957031 204.425781 639.097656 202.03125 638.933594 199.242188 C 638.683594 195.039062 638.570312 191.207031 638.570312 187.71875 C 638.546875 172.410156 640.792969 163.808594 643 159.316406 L 643 254.171875 C 643 258.492188 646.523438 261.988281 650.863281 261.988281 C 655.207031 261.988281 658.730469 258.492188 658.730469 254.171875 L 658.730469 197.085938 L 661.679688 197.085938 L 661.679688 254.171875 C 661.679688 258.492188 665.199219 261.988281 669.542969 261.988281 C 673.886719 261.988281 677.40625 258.492188 677.40625 254.171875 L 677.40625 159.34375 C 677.785156 160.113281 678.164062 160.992188 678.539062 162.023438 C 680.335938 166.964844 681.84375 175.070312 681.835938 187.722656 C 681.835938 191.210938 681.722656 195.039062 681.476562 199.246094 C 681.3125 202.035156 683.453125 204.425781 686.261719 204.589844 C 686.359375 204.597656 686.460938 204.601562 686.558594 204.601562 C 689.234375 204.601562 691.480469 202.523438 691.636719 199.835938 C 691.894531 195.453125 692.015625 191.425781 692.015625 187.722656 C 691.988281 168.636719 688.921875 158.070312 684.738281 151.71875 C 682.648438 148.566406 680.207031 146.546875 677.949219 145.425781 C 675.832031 144.363281 673.96875 144.105469 672.8125 144.078125 C 672.707031 144.070312 672.601562 144.0625 672.492188 144.0625 L 647.917969 144.0625 C 647.816406 144.0625 647.71875 144.070312 647.617188 144.078125 C 646.460938 144.101562 644.589844 144.359375 642.457031 145.425781 C 639.039062 147.113281 635.347656 150.800781 632.769531 157.339844 C 630.15625 163.902344 628.402344 173.390625 628.390625 187.71875 C 628.394531 191.425781 628.511719 195.453125 628.773438 199.835938 C 628.929688 202.523438 631.171875 204.597656 633.847656 204.597656 C 633.949219 204.597656 634.050781 204.597656 634.148438 204.589844 Z M 634.148438 204.589844 "/>
</g>
<path style=" stroke:none;fill-rule:nonzero;fill:rgb(0%,76.078796%,79.60968%);fill-opacity:1;" d="M 674.515625 126.230469 C 674.515625 127.164062 674.425781 128.089844 674.242188 129.003906 C 674.058594 129.921875 673.789062 130.8125 673.429688 131.675781 C 673.066406 132.535156 672.628906 133.355469 672.105469 134.132812 C 671.582031 134.910156 670.988281 135.628906 670.324219 136.289062 C 669.660156 136.949219 668.9375 137.539062 668.15625 138.058594 C 667.375 138.578125 666.550781 139.015625 665.683594 139.375 C 664.8125 139.730469 663.917969 140 662.996094 140.183594 C 662.074219 140.367188 661.144531 140.457031 660.203125 140.457031 C 659.265625 140.457031 658.335938 140.367188 657.414062 140.183594 C 656.492188 140 655.597656 139.730469 654.726562 139.375 C 653.859375 139.015625 653.035156 138.578125 652.253906 138.058594 C 651.472656 137.539062 650.75 136.949219 650.085938 136.289062 C 649.417969 135.628906 648.828125 134.910156 648.304688 134.132812 C 647.78125 133.355469 647.339844 132.535156 646.980469 131.675781 C 646.621094 130.8125 646.351562 129.921875 646.167969 129.003906 C 645.984375 128.089844 645.890625 127.164062 645.890625 126.230469 C 645.890625 125.292969 645.984375 124.371094 646.167969 123.453125 C 646.351562 122.535156 646.621094 121.648438 646.980469 120.785156 C 647.339844 119.921875 647.78125 119.101562 648.304688 118.324219 C 648.828125 117.546875 649.417969 116.828125 650.085938 116.167969 C 650.75 115.507812 651.472656 114.917969 652.253906 114.398438 C 653.035156 113.878906 653.859375 113.441406 654.726562 113.082031 C 655.597656 112.726562 656.492188 112.457031 657.414062 112.273438 C 658.335938 112.089844 659.265625 112 660.203125 112 C 661.144531 112 662.074219 112.089844 662.996094 112.273438 C 663.917969 112.457031 664.8125 112.726562 665.683594 113.082031 C 666.550781 113.441406 667.375 113.878906 668.15625 114.398438 C 668.9375 114.917969 669.660156 115.507812 670.324219 116.167969 C 670.988281 116.828125 671.582031 117.546875 672.105469 118.324219 C 672.628906 119.101562 673.066406 119.921875 673.429688 120.785156 C 673.789062 121.648438 674.058594 122.535156 674.242188 123.453125 C 674.425781 124.371094 674.515625 125.292969 674.515625 126.230469 Z M 674.515625 126.230469 "/>
<path style=" stroke:none;fill-rule:nonzero;fill:rgb(100%,34.118652%,34.118652%);fill-opacity:1;" d="M 1207.199219 144.652344 C 1215.539062 144.558594 1222.285156 137.746094 1222.285156 129.355469 C 1222.285156 120.949219 1215.539062 114.128906 1207.199219 114.035156 C 1198.859375 114.128906 1192.113281 120.949219 1192.113281 129.355469 C 1192.113281 137.746094 1198.859375 144.558594 1207.199219 144.652344 "/>
<g clip-path="url(#clip2)" clip-rule="nonzero">
<path style=" stroke:none;fill-rule:nonzero;fill:rgb(100%,100%,100%);fill-opacity:1;" d="M 1207.199219 144.652344 L 1207.210938 145.695312 C 1211.664062 145.644531 1215.699219 143.800781 1218.609375 140.847656 C 1221.523438 137.898438 1223.328125 133.832031 1223.328125 129.355469 C 1223.324219 120.378906 1216.125 113.089844 1207.210938 112.992188 L 1207.1875 112.992188 C 1198.277344 113.09375 1191.074219 120.378906 1191.074219 129.355469 C 1191.074219 133.832031 1192.875 137.898438 1195.789062 140.847656 C 1198.699219 143.800781 1202.734375 145.644531 1207.1875 145.695312 L 1207.210938 145.695312 L 1207.199219 144.652344 L 1207.210938 143.609375 C 1203.324219 143.5625 1199.816406 141.957031 1197.269531 139.378906 C 1194.726562 136.800781 1193.15625 133.265625 1193.15625 129.355469 C 1193.15625 121.523438 1199.441406 115.164062 1207.210938 115.082031 L 1207.199219 114.035156 L 1207.1875 115.082031 C 1214.957031 115.164062 1221.242188 121.523438 1221.242188 129.355469 C 1221.242188 133.265625 1219.671875 136.800781 1217.128906 139.378906 C 1214.582031 141.957031 1211.074219 143.5625 1207.1875 143.609375 L 1207.199219 144.652344 L 1207.210938 143.609375 L 1207.199219 144.652344 "/>
</g>
<path style=" stroke:none;fill-rule:nonzero;fill:rgb(100%,34.118652%,34.118652%);fill-opacity:1;" d="M 1244.015625 193.167969 L 1238.082031 173.667969 L 1238.082031 173.660156 L 1231.246094 151.152344 C 1230.53125 148.816406 1228.289062 147.382812 1225.960938 147.621094 L 1225.960938 147.589844 L 1189.8125 147.589844 L 1189.8125 147.621094 C 1187.988281 147.601562 1186.210938 148.570312 1185.316406 150.308594 L 1172.046875 189.324219 C 1170.777344 191.789062 1171.738281 194.816406 1174.191406 196.09375 C 1176.652344 197.367188 1179.667969 196.402344 1180.945312 193.945312 L 1192.09375 159.4375 L 1194.113281 159.40625 L 1194.085938 159.8125 L 1177.730469 212.773438 L 1191.332031 212.773438 L 1191.332031 225.1875 C 1191.332031 225.53125 1191.390625 225.859375 1191.425781 226.195312 C 1191.390625 226.527344 1191.332031 226.855469 1191.332031 227.199219 L 1191.332031 253.839844 C 1191.332031 258.332031 1194.617188 261.960938 1198.664062 261.960938 C 1202.707031 261.960938 1205.984375 258.332031 1205.984375 253.839844 L 1205.984375 227.199219 C 1205.984375 226.855469 1205.929688 226.527344 1205.890625 226.195312 C 1205.929688 225.859375 1205.984375 225.53125 1205.984375 225.1875 L 1205.984375 212.773438 L 1208.410156 212.773438 L 1208.410156 225.1875 C 1208.410156 225.53125 1208.46875 225.859375 1208.507812 226.195312 C 1208.46875 226.527344 1208.410156 226.855469 1208.410156 227.199219 L 1208.410156 253.839844 C 1208.410156 258.332031 1211.691406 261.960938 1215.742188 261.960938 C 1219.78125 261.960938 1223.0625 258.332031 1223.0625 253.839844 L 1223.0625 227.199219 C 1223.0625 226.855469 1223.007812 226.527344 1222.972656 226.195312 C 1223.007812 225.859375 1223.0625 225.53125 1223.0625 225.1875 L 1223.0625 212.773438 L 1236.664062 212.773438 L 1220.308594 159.8125 L 1220.292969 159.40625 L 1223.292969 159.433594 L 1227.59375 173.582031 L 1234.433594 196.101562 C 1235.242188 198.75 1238.035156 200.25 1240.683594 199.441406 C 1243.332031 198.628906 1244.824219 195.828125 1244.015625 193.167969 "/>
<g clip-path="url(#clip3)" clip-rule="nonzero">
<path style=" stroke:none;fill-rule:nonzero;fill:rgb(100%,100%,100%);fill-opacity:1;" d="M 1244.015625 193.167969 L 1245.011719 192.863281 L 1239.082031 173.363281 L 1238.082031 173.667969 L 1239.125 173.667969 L 1239.125 173.660156 C 1239.125 173.550781 1239.113281 173.457031 1239.082031 173.355469 L 1232.238281 150.847656 C 1231.84375 149.546875 1231.046875 148.464844 1230.027344 147.71875 C 1229.007812 146.972656 1227.765625 146.550781 1226.46875 146.550781 C 1226.265625 146.550781 1226.058594 146.5625 1225.851562 146.585938 L 1225.960938 147.621094 L 1227.003906 147.621094 L 1227.003906 147.589844 C 1227.003906 147.3125 1226.890625 147.046875 1226.695312 146.851562 C 1226.503906 146.65625 1226.234375 146.542969 1225.960938 146.542969 L 1189.8125 146.542969 C 1189.539062 146.542969 1189.273438 146.65625 1189.078125 146.851562 C 1188.882812 147.046875 1188.773438 147.3125 1188.773438 147.589844 L 1188.773438 147.621094 L 1189.8125 147.621094 L 1189.824219 146.578125 L 1189.761719 146.578125 C 1188.671875 146.578125 1187.601562 146.867188 1186.664062 147.417969 C 1185.730469 147.96875 1184.925781 148.789062 1184.386719 149.828125 C 1184.367188 149.867188 1184.339844 149.929688 1184.328125 149.972656 L 1171.0625 188.988281 L 1172.046875 189.324219 L 1171.125 188.84375 C 1170.664062 189.734375 1170.445312 190.691406 1170.445312 191.628906 C 1170.445312 192.726562 1170.742188 193.800781 1171.300781 194.742188 C 1171.855469 195.679688 1172.679688 196.480469 1173.710938 197.019531 L 1173.714844 197.019531 C 1174.601562 197.480469 1175.554688 197.699219 1176.492188 197.699219 C 1177.585938 197.699219 1178.660156 197.398438 1179.59375 196.839844 C 1180.53125 196.285156 1181.332031 195.464844 1181.871094 194.425781 C 1181.898438 194.371094 1181.917969 194.324219 1181.9375 194.265625 L 1192.855469 160.46875 L 1194.128906 160.449219 L 1194.113281 159.40625 L 1193.074219 159.335938 L 1193.054688 159.621094 L 1176.738281 212.464844 C 1176.636719 212.78125 1176.695312 213.128906 1176.894531 213.394531 C 1177.089844 213.660156 1177.402344 213.820312 1177.730469 213.820312 L 1190.292969 213.820312 L 1190.292969 225.1875 C 1190.292969 225.644531 1190.359375 226.011719 1190.386719 226.300781 L 1191.425781 226.195312 L 1190.386719 226.085938 C 1190.359375 226.375 1190.292969 226.742188 1190.292969 227.199219 L 1190.292969 253.839844 C 1190.292969 256.34375 1191.203125 258.621094 1192.707031 260.285156 C 1194.207031 261.949219 1196.324219 263.003906 1198.664062 263.003906 C 1201 263.003906 1203.113281 261.949219 1204.613281 260.285156 C 1206.113281 258.621094 1207.027344 256.34375 1207.027344 253.839844 L 1207.027344 227.199219 C 1207.027344 226.738281 1206.957031 226.367188 1206.925781 226.070312 L 1205.890625 226.195312 L 1206.925781 226.316406 C 1206.957031 226.019531 1207.027344 225.648438 1207.027344 225.1875 L 1207.027344 213.816406 L 1207.367188 213.816406 L 1207.367188 225.1875 C 1207.371094 225.644531 1207.4375 226.019531 1207.476562 226.324219 L 1208.507812 226.195312 L 1207.476562 226.0625 C 1207.4375 226.367188 1207.371094 226.742188 1207.367188 227.199219 L 1207.367188 253.839844 C 1207.367188 256.34375 1208.28125 258.621094 1209.785156 260.285156 C 1211.285156 261.949219 1213.402344 263.003906 1215.742188 263.003906 C 1218.078125 263.003906 1220.191406 261.949219 1221.691406 260.285156 C 1223.191406 258.621094 1224.105469 256.34375 1224.105469 253.839844 L 1224.105469 227.199219 C 1224.101562 226.742188 1224.035156 226.375 1224.007812 226.085938 L 1222.972656 226.195312 L 1224.007812 226.300781 C 1224.035156 226.011719 1224.101562 225.644531 1224.105469 225.1875 L 1224.105469 213.820312 L 1236.664062 213.820312 C 1236.992188 213.820312 1237.304688 213.660156 1237.5 213.394531 C 1237.699219 213.128906 1237.757812 212.78125 1237.660156 212.464844 L 1221.34375 159.632812 L 1221.332031 159.359375 L 1220.292969 159.40625 L 1220.28125 160.449219 L 1222.519531 160.46875 L 1226.597656 173.886719 L 1233.4375 196.40625 C 1233.835938 197.710938 1234.636719 198.789062 1235.660156 199.535156 C 1236.679688 200.28125 1237.925781 200.703125 1239.226562 200.703125 C 1239.808594 200.703125 1240.402344 200.617188 1240.988281 200.441406 C 1242.292969 200.039062 1243.367188 199.238281 1244.113281 198.214844 C 1244.855469 197.1875 1245.273438 195.941406 1245.273438 194.636719 C 1245.273438 194.050781 1245.191406 193.453125 1245.011719 192.863281 L 1243.019531 193.472656 C 1243.136719 193.859375 1243.191406 194.253906 1243.191406 194.636719 C 1243.191406 195.488281 1242.917969 196.308594 1242.429688 196.984375 C 1241.9375 197.65625 1241.238281 198.179688 1240.378906 198.441406 L 1240.382812 198.441406 C 1239.996094 198.558594 1239.605469 198.613281 1239.226562 198.613281 C 1238.375 198.617188 1237.558594 198.339844 1236.886719 197.847656 C 1236.214844 197.355469 1235.691406 196.65625 1235.429688 195.796875 L 1228.589844 173.28125 L 1224.289062 159.128906 C 1224.15625 158.691406 1223.757812 158.394531 1223.304688 158.386719 L 1220.300781 158.363281 C 1220.015625 158.359375 1219.742188 158.476562 1219.542969 158.683594 C 1219.34375 158.890625 1219.238281 159.167969 1219.25 159.453125 L 1219.269531 159.863281 C 1219.273438 159.949219 1219.289062 160.039062 1219.316406 160.121094 L 1235.25 211.730469 L 1223.0625 211.730469 C 1222.789062 211.730469 1222.519531 211.84375 1222.328125 212.035156 C 1222.132812 212.230469 1222.023438 212.5 1222.023438 212.773438 L 1222.023438 225.1875 C 1222.023438 225.414062 1221.976562 225.703125 1221.9375 226.085938 C 1221.929688 226.160156 1221.929688 226.226562 1221.9375 226.300781 C 1221.976562 226.679688 1222.023438 226.972656 1222.023438 227.199219 L 1222.023438 253.839844 C 1222.023438 255.828125 1221.292969 257.613281 1220.144531 258.886719 C 1218.992188 260.15625 1217.445312 260.917969 1215.742188 260.917969 C 1214.03125 260.917969 1212.484375 260.15625 1211.328125 258.886719 C 1210.179688 257.613281 1209.453125 255.828125 1209.453125 253.839844 L 1209.453125 227.199219 C 1209.449219 226.96875 1209.492188 226.6875 1209.542969 226.324219 C 1209.550781 226.238281 1209.550781 226.148438 1209.542969 226.0625 C 1209.492188 225.695312 1209.449219 225.414062 1209.453125 225.1875 L 1209.453125 212.773438 C 1209.453125 212.5 1209.339844 212.230469 1209.148438 212.035156 C 1208.953125 211.84375 1208.683594 211.730469 1208.410156 211.730469 L 1205.984375 211.730469 C 1205.710938 211.730469 1205.445312 211.84375 1205.25 212.035156 C 1205.054688 212.230469 1204.945312 212.5 1204.945312 212.773438 L 1204.945312 225.1875 C 1204.945312 225.414062 1204.902344 225.695312 1204.855469 226.070312 C 1204.84375 226.15625 1204.84375 226.226562 1204.855469 226.316406 C 1204.902344 226.6875 1204.945312 226.972656 1204.945312 227.199219 L 1204.945312 253.839844 C 1204.945312 255.828125 1204.21875 257.613281 1203.070312 258.886719 C 1201.914062 260.15625 1200.367188 260.917969 1198.664062 260.917969 C 1196.957031 260.917969 1195.40625 260.15625 1194.253906 258.886719 C 1193.101562 257.613281 1192.375 255.828125 1192.375 253.839844 L 1192.375 227.199219 C 1192.375 226.96875 1192.417969 226.679688 1192.460938 226.300781 C 1192.46875 226.226562 1192.46875 226.160156 1192.460938 226.085938 C 1192.417969 225.703125 1192.375 225.414062 1192.375 225.1875 L 1192.375 212.773438 C 1192.375 212.5 1192.265625 212.230469 1192.070312 212.035156 C 1191.875 211.84375 1191.605469 211.730469 1191.332031 211.730469 L 1179.144531 211.730469 L 1195.082031 160.121094 C 1195.101562 160.050781 1195.121094 159.960938 1195.125 159.882812 L 1195.152344 159.476562 C 1195.171875 159.1875 1195.070312 158.898438 1194.871094 158.6875 C 1194.667969 158.476562 1194.386719 158.359375 1194.097656 158.363281 L 1192.078125 158.394531 C 1191.632812 158.402344 1191.242188 158.691406 1191.101562 159.117188 L 1179.953125 193.625 L 1180.945312 193.945312 L 1180.019531 193.460938 C 1179.664062 194.148438 1179.144531 194.679688 1178.53125 195.046875 C 1177.914062 195.414062 1177.207031 195.609375 1176.492188 195.609375 C 1175.875 195.609375 1175.257812 195.46875 1174.671875 195.164062 L 1174.671875 195.167969 C 1173.988281 194.808594 1173.457031 194.289062 1173.089844 193.671875 C 1172.726562 193.058594 1172.527344 192.347656 1172.527344 191.628906 C 1172.53125 191.011719 1172.671875 190.390625 1172.972656 189.804688 C 1172.992188 189.765625 1173.019531 189.703125 1173.035156 189.664062 L 1186.300781 150.644531 L 1185.316406 150.308594 L 1186.238281 150.785156 C 1186.589844 150.105469 1187.109375 149.582031 1187.722656 149.21875 C 1188.332031 148.855469 1189.039062 148.664062 1189.761719 148.667969 L 1189.800781 148.667969 C 1190.082031 148.667969 1190.347656 148.558594 1190.546875 148.363281 C 1190.746094 148.167969 1190.855469 147.902344 1190.855469 147.621094 L 1190.855469 147.589844 L 1189.8125 147.589844 L 1189.8125 148.632812 L 1225.960938 148.632812 L 1225.960938 147.589844 L 1224.917969 147.589844 L 1224.917969 147.621094 C 1224.917969 147.917969 1225.042969 148.203125 1225.265625 148.398438 C 1225.484375 148.59375 1225.777344 148.691406 1226.070312 148.660156 C 1226.199219 148.648438 1226.332031 148.640625 1226.46875 148.640625 C 1227.3125 148.640625 1228.128906 148.914062 1228.796875 149.40625 C 1229.464844 149.894531 1229.984375 150.597656 1230.25 151.457031 L 1237.085938 173.964844 L 1238.082031 173.660156 L 1237.042969 173.660156 L 1237.042969 173.667969 C 1237.042969 173.773438 1237.054688 173.867188 1237.085938 173.972656 L 1243.019531 193.472656 L 1244.015625 193.167969 "/>
</g>
<g clip-path="url(#clip4)" clip-rule="nonzero">
<path style=" stroke:none;fill-rule:nonzero;fill:rgb(0%,76.078796%,79.60968%);fill-opacity:1;" d="M 284.414062 205.589844 C 287.222656 205.425781 289.363281 203.03125 289.199219 200.242188 C 288.949219 196.039062 288.835938 192.207031 288.835938 188.71875 C 288.816406 173.410156 291.058594 164.808594 293.265625 160.316406 L 293.265625 255.171875 C 293.265625 259.488281 296.789062 262.988281 301.128906 262.988281 C 305.472656 262.988281 308.996094 259.488281 308.996094 255.171875 L 308.996094 198.085938 L 311.945312 198.085938 L 311.945312 255.171875 C 311.945312 259.488281 315.464844 262.988281 319.808594 262.988281 C 324.152344 262.988281 327.675781 259.488281 327.675781 255.171875 L 327.675781 160.34375 C 328.050781 161.109375 328.429688 161.992188 328.804688 163.023438 C 330.601562 167.960938 332.109375 176.070312 332.101562 188.722656 C 332.101562 192.207031 331.988281 196.039062 331.742188 200.246094 C 331.578125 203.03125 333.71875 205.425781 336.527344 205.589844 C 336.625 205.597656 336.726562 205.597656 336.824219 205.597656 C 339.5 205.601562 341.746094 203.523438 341.902344 200.835938 C 342.160156 196.449219 342.28125 192.425781 342.28125 188.722656 C 342.253906 169.632812 339.1875 159.070312 335.007812 152.71875 C 332.917969 149.566406 330.472656 147.542969 328.214844 146.425781 C 326.097656 145.363281 324.234375 145.105469 323.078125 145.078125 C 322.972656 145.070312 322.867188 145.0625 322.757812 145.0625 L 298.183594 145.0625 C 298.082031 145.0625 297.984375 145.070312 297.882812 145.078125 C 296.730469 145.101562 294.855469 145.355469 292.722656 146.425781 C 289.304688 148.109375 285.613281 151.800781 283.035156 158.339844 C 280.421875 164.902344 278.667969 174.390625 278.660156 188.71875 C 278.660156 192.421875 278.777344 196.449219 279.039062 200.835938 C 279.195312 203.523438 281.4375 205.597656 284.113281 205.597656 C 284.214844 205.597656 284.316406 205.59375 284.414062 205.589844 Z M 284.414062 205.589844 "/>
</g>
<path style=" stroke:none;fill-rule:nonzero;fill:rgb(0%,76.078796%,79.60968%);fill-opacity:1;" d="M 324.785156 127.226562 C 324.785156 128.164062 324.691406 129.085938 324.507812 130.003906 C 324.324219 130.921875 324.054688 131.808594 323.695312 132.671875 C 323.335938 133.535156 322.894531 134.355469 322.371094 135.132812 C 321.847656 135.910156 321.253906 136.628906 320.589844 137.289062 C 319.925781 137.949219 319.203125 138.539062 318.421875 139.058594 C 317.640625 139.578125 316.816406 140.015625 315.949219 140.375 C 315.078125 140.730469 314.183594 141 313.261719 141.183594 C 312.339844 141.367188 311.410156 141.457031 310.472656 141.457031 C 309.53125 141.457031 308.601562 141.367188 307.679688 141.183594 C 306.757812 141 305.863281 140.730469 304.992188 140.375 C 304.125 140.015625 303.300781 139.578125 302.519531 139.058594 C 301.738281 138.539062 301.015625 137.949219 300.351562 137.289062 C 299.6875 136.628906 299.09375 135.910156 298.570312 135.132812 C 298.046875 134.355469 297.605469 133.535156 297.246094 132.671875 C 296.886719 131.808594 296.617188 130.921875 296.433594 130.003906 C 296.25 129.085938 296.15625 128.164062 296.15625 127.226562 C 296.15625 126.292969 296.25 125.367188 296.433594 124.453125 C 296.617188 123.535156 296.886719 122.644531 297.246094 121.78125 C 297.605469 120.921875 298.046875 120.101562 298.570312 119.324219 C 299.09375 118.546875 299.6875 117.828125 300.351562 117.167969 C 301.015625 116.507812 301.738281 115.917969 302.519531 115.398438 C 303.300781 114.878906 304.125 114.441406 304.992188 114.082031 C 305.863281 113.726562 306.757812 113.457031 307.679688 113.273438 C 308.601562 113.089844 309.53125 113 310.472656 113 C 311.410156 113 312.339844 113.089844 313.261719 113.273438 C 314.183594 113.457031 315.078125 113.726562 315.949219 114.082031 C 316.816406 114.441406 317.640625 114.878906 318.421875 115.398438 C 319.203125 115.917969 319.925781 116.507812 320.589844 117.167969 C 321.253906 117.828125 321.847656 118.546875 322.371094 119.324219 C 322.894531 120.101562 323.335938 120.921875 323.695312 121.78125 C 324.054688 122.644531 324.324219 123.535156 324.507812 124.453125 C 324.691406 125.367188 324.785156 126.292969 324.785156 127.226562 Z M 324.785156 127.226562 "/>
<g clip-path="url(#clip5)" clip-rule="nonzero">
<path style=" stroke:none;fill-rule:nonzero;fill:rgb(0%,76.078796%,79.60968%);fill-opacity:1;" d="M 110.277344 204.589844 C 113.082031 204.425781 115.222656 202.03125 115.058594 199.242188 C 114.8125 195.039062 114.699219 191.207031 114.699219 187.71875 C 114.675781 172.410156 116.921875 163.808594 119.128906 159.316406 L 119.128906 254.171875 C 119.128906 258.492188 122.648438 261.988281 126.992188 261.988281 C 131.335938 261.988281 134.855469 258.492188 134.855469 254.171875 L 134.855469 197.085938 L 137.804688 197.085938 L 137.804688 254.171875 C 137.804688 258.492188 141.328125 261.988281 145.671875 261.988281 C 150.011719 261.988281 153.535156 258.492188 153.535156 254.171875 L 153.535156 159.34375 C 153.914062 160.113281 154.292969 160.992188 154.667969 162.023438 C 156.460938 166.964844 157.96875 175.070312 157.964844 187.722656 C 157.964844 191.210938 157.851562 195.039062 157.605469 199.246094 C 157.441406 202.035156 159.582031 204.425781 162.386719 204.589844 C 162.488281 204.597656 162.589844 204.601562 162.6875 204.601562 C 165.363281 204.601562 167.605469 202.523438 167.765625 199.835938 C 168.023438 195.453125 168.140625 191.425781 168.140625 187.722656 C 168.117188 168.636719 165.050781 158.070312 160.867188 151.71875 C 158.777344 148.566406 156.335938 146.546875 154.074219 145.425781 C 151.960938 144.363281 150.097656 144.105469 148.941406 144.078125 C 148.835938 144.070312 148.726562 144.0625 148.621094 144.0625 L 124.042969 144.0625 C 123.941406 144.0625 123.84375 144.070312 123.746094 144.078125 C 122.589844 144.101562 120.714844 144.359375 118.585938 145.425781 C 115.164062 147.113281 111.476562 150.800781 108.894531 157.339844 C 106.285156 163.902344 104.527344 173.390625 104.519531 187.71875 C 104.523438 191.425781 104.640625 195.453125 104.898438 199.835938 C 105.058594 202.523438 107.300781 204.597656 109.976562 204.597656 C 110.074219 204.597656 110.175781 204.597656 110.277344 204.589844 Z M 110.277344 204.589844 "/>
</g>
<path style=" stroke:none;fill-rule:nonzero;fill:rgb(0%,76.078796%,79.60968%);fill-opacity:1;" d="M 150.644531 126.230469 C 150.644531 127.164062 150.554688 128.089844 150.371094 129.003906 C 150.1875 129.921875 149.914062 130.8125 149.554688 131.675781 C 149.195312 132.535156 148.753906 133.355469 148.234375 134.132812 C 147.710938 134.910156 147.117188 135.628906 146.453125 136.289062 C 145.789062 136.949219 145.066406 137.539062 144.285156 138.058594 C 143.503906 138.578125 142.679688 139.015625 141.808594 139.375 C 140.941406 139.730469 140.046875 140 139.125 140.183594 C 138.203125 140.367188 137.273438 140.457031 136.332031 140.457031 C 135.394531 140.457031 134.460938 140.367188 133.539062 140.183594 C 132.617188 140 131.722656 139.730469 130.855469 139.375 C 129.988281 139.015625 129.164062 138.578125 128.378906 138.058594 C 127.597656 137.539062 126.875 136.949219 126.210938 136.289062 C 125.546875 135.628906 124.953125 134.910156 124.433594 134.132812 C 123.910156 133.355469 123.46875 132.535156 123.109375 131.675781 C 122.75 130.8125 122.476562 129.921875 122.292969 129.003906 C 122.113281 128.089844 122.019531 127.164062 122.019531 126.230469 C 122.019531 125.292969 122.113281 124.371094 122.292969 123.453125 C 122.476562 122.535156 122.75 121.648438 123.109375 120.785156 C 123.46875 119.921875 123.910156 119.101562 124.433594 118.324219 C 124.953125 117.546875 125.546875 116.828125 126.210938 116.167969 C 126.875 115.507812 127.597656 114.917969 128.378906 114.398438 C 129.164062 113.878906 129.988281 113.441406 130.855469 113.082031 C 131.722656 112.726562 132.617188 112.457031 133.539062 112.273438 C 134.460938 112.089844 135.394531 112 136.332031 112 C 137.273438 112 138.203125 112.089844 139.125 112.273438 C 140.046875 112.457031 140.941406 112.726562 141.808594 113.082031 C 142.679688 113.441406 143.503906 113.878906 144.285156 114.398438 C 145.066406 114.917969 145.789062 115.507812 146.453125 116.167969 C 147.117188 116.828125 147.710938 117.546875 148.234375 118.324219 C 148.753906 119.101562 149.195312 119.921875 149.554688 120.785156 C 149.914062 121.648438 150.1875 122.535156 150.371094 123.453125 C 150.554688 124.371094 150.644531 125.292969 150.644531 126.230469 Z M 150.644531 126.230469 "/>
<g clip-path="url(#clip6)" clip-rule="nonzero">
<path style=" stroke:none;fill-rule:nonzero;fill:rgb(0%,76.078796%,79.60968%);fill-opacity:1;" d="M 996.90625 205.589844 C 999.714844 205.425781 1001.851562 203.03125 1001.6875 200.242188 C 1001.441406 196.039062 1001.328125 192.207031 1001.328125 188.71875 C 1001.304688 173.410156 1003.550781 164.808594 1005.757812 160.316406 L 1005.757812 255.171875 C 1005.757812 259.488281 1009.277344 262.988281 1013.621094 262.988281 C 1017.964844 262.988281 1021.488281 259.488281 1021.488281 255.171875 L 1021.488281 198.085938 L 1024.433594 198.085938 L 1024.433594 255.171875 C 1024.433594 259.488281 1027.957031 262.988281 1032.300781 262.988281 C 1036.644531 262.988281 1040.164062 259.488281 1040.164062 255.171875 L 1040.164062 160.34375 C 1040.542969 161.109375 1040.921875 161.992188 1041.296875 163.023438 C 1043.089844 167.960938 1044.601562 176.070312 1044.59375 188.722656 C 1044.59375 192.207031 1044.480469 196.039062 1044.234375 200.246094 C 1044.070312 203.03125 1046.210938 205.425781 1049.019531 205.589844 C 1049.117188 205.597656 1049.21875 205.597656 1049.316406 205.597656 C 1051.992188 205.601562 1054.234375 203.523438 1054.394531 200.835938 C 1054.652344 196.449219 1054.769531 192.425781 1054.769531 188.722656 C 1054.746094 169.632812 1051.679688 159.070312 1047.496094 152.71875 C 1045.40625 149.566406 1042.964844 147.542969 1040.703125 146.425781 C 1038.589844 145.363281 1036.726562 145.105469 1035.570312 145.078125 C 1035.464844 145.070312 1035.359375 145.0625 1035.25 145.0625 L 1010.671875 145.0625 C 1010.574219 145.0625 1010.472656 145.070312 1010.375 145.078125 C 1009.21875 145.101562 1007.347656 145.355469 1005.214844 146.425781 C 1001.792969 148.109375 998.105469 151.800781 995.527344 158.339844 C 992.914062 164.902344 991.160156 174.390625 991.148438 188.71875 C 991.152344 192.421875 991.269531 196.449219 991.527344 200.835938 C 991.6875 203.523438 993.929688 205.597656 996.605469 205.597656 C 996.707031 205.597656 996.804688 205.59375 996.90625 205.589844 Z M 996.90625 205.589844 "/>
</g>
<path style=" stroke:none;fill-rule:nonzero;fill:rgb(0%,76.078796%,79.60968%);fill-opacity:1;" d="M 1037.273438 127.226562 C 1037.273438 128.164062 1037.183594 129.085938 1037 130.003906 C 1036.816406 130.921875 1036.546875 131.808594 1036.183594 132.671875 C 1035.824219 133.535156 1035.386719 134.355469 1034.863281 135.132812 C 1034.339844 135.910156 1033.746094 136.628906 1033.082031 137.289062 C 1032.417969 137.949219 1031.695312 138.539062 1030.914062 139.058594 C 1030.132812 139.578125 1029.308594 140.015625 1028.4375 140.375 C 1027.570312 140.730469 1026.675781 141 1025.753906 141.183594 C 1024.832031 141.367188 1023.902344 141.457031 1022.960938 141.457031 C 1022.023438 141.457031 1021.089844 141.367188 1020.167969 141.183594 C 1019.25 141 1018.351562 140.730469 1017.484375 140.375 C 1016.617188 140.015625 1015.792969 139.578125 1015.011719 139.058594 C 1014.230469 138.539062 1013.507812 137.949219 1012.839844 137.289062 C 1012.175781 136.628906 1011.582031 135.910156 1011.0625 135.132812 C 1010.539062 134.355469 1010.097656 133.535156 1009.738281 132.671875 C 1009.378906 131.808594 1009.109375 130.921875 1008.925781 130.003906 C 1008.742188 129.085938 1008.648438 128.164062 1008.648438 127.226562 C 1008.648438 126.292969 1008.742188 125.367188 1008.925781 124.453125 C 1009.109375 123.535156 1009.378906 122.644531 1009.738281 121.78125 C 1010.097656 120.921875 1010.539062 120.101562 1011.0625 119.324219 C 1011.582031 118.546875 1012.175781 117.828125 1012.839844 117.167969 C 1013.507812 116.507812 1014.230469 115.917969 1015.011719 115.398438 C 1015.792969 114.878906 1016.617188 114.441406 1017.484375 114.082031 C 1018.351562 113.726562 1019.25 113.457031 1020.167969 113.273438 C 1021.089844 113.089844 1022.023438 113 1022.960938 113 C 1023.902344 113 1024.832031 113.089844 1025.753906 113.273438 C 1026.675781 113.457031 1027.570312 113.726562 1028.4375 114.082031 C 1029.308594 114.441406 1030.132812 114.878906 1030.914062 115.398438 C 1031.695312 115.917969 1032.417969 116.507812 1033.082031 117.167969 C 1033.746094 117.828125 1034.339844 118.546875 1034.863281 119.324219 C 1035.386719 120.101562 1035.824219 120.921875 1036.183594 121.78125 C 1036.546875 122.644531 1036.816406 123.535156 1037 124.453125 C 1037.183594 125.367188 1037.273438 126.292969 1037.273438 127.226562 Z M 1037.273438 127.226562 "/>
<g clip-path="url(#clip7)" clip-rule="nonzero">
<path style=" stroke:none;fill-rule:nonzero;fill:rgb(0%,76.078796%,79.60968%);fill-opacity:1;" d="M 1086.851562 205.589844 C 1089.660156 205.425781 1091.796875 203.03125 1091.632812 200.242188 C 1091.386719 196.039062 1091.273438 192.207031 1091.273438 188.71875 C 1091.25 173.410156 1093.496094 164.808594 1095.703125 160.316406 L 1095.703125 255.171875 C 1095.703125 259.488281 1099.222656 262.988281 1103.566406 262.988281 C 1107.910156 262.988281 1111.433594 259.488281 1111.433594 255.171875 L 1111.433594 198.085938 L 1114.378906 198.085938 L 1114.378906 255.171875 C 1114.378906 259.488281 1117.902344 262.988281 1122.246094 262.988281 C 1126.589844 262.988281 1130.109375 259.488281 1130.109375 255.171875 L 1130.109375 160.34375 C 1130.488281 161.109375 1130.867188 161.992188 1131.242188 163.023438 C 1133.035156 167.960938 1134.546875 176.070312 1134.539062 188.722656 C 1134.539062 192.207031 1134.425781 196.039062 1134.179688 200.246094 C 1134.015625 203.03125 1136.15625 205.425781 1138.960938 205.589844 C 1139.0625 205.597656 1139.164062 205.597656 1139.261719 205.597656 C 1141.9375 205.601562 1144.179688 203.523438 1144.339844 200.835938 C 1144.597656 196.449219 1144.714844 192.425781 1144.714844 188.722656 C 1144.691406 169.632812 1141.625 159.070312 1137.441406 152.71875 C 1135.351562 149.566406 1132.910156 147.542969 1130.648438 146.425781 C 1128.535156 145.363281 1126.671875 145.105469 1125.515625 145.078125 C 1125.410156 145.070312 1125.304688 145.0625 1125.195312 145.0625 L 1100.617188 145.0625 C 1100.519531 145.0625 1100.417969 145.070312 1100.320312 145.078125 C 1099.164062 145.101562 1097.292969 145.355469 1095.160156 146.425781 C 1091.738281 148.109375 1088.050781 151.800781 1085.472656 158.339844 C 1082.859375 164.902344 1081.105469 174.390625 1081.09375 188.71875 C 1081.097656 192.421875 1081.214844 196.449219 1081.472656 200.835938 C 1081.632812 203.523438 1083.875 205.597656 1086.550781 205.597656 C 1086.652344 205.597656 1086.75 205.59375 1086.851562 205.589844 Z M 1086.851562 205.589844 "/>
</g>
<path style=" stroke:none;fill-rule:nonzero;fill:rgb(0%,76.078796%,79.60968%);fill-opacity:1;" d="M 1127.21875 127.226562 C 1127.21875 128.164062 1127.128906 129.085938 1126.945312 130.003906 C 1126.761719 130.921875 1126.492188 131.808594 1126.128906 132.671875 C 1125.769531 133.535156 1125.332031 134.355469 1124.808594 135.132812 C 1124.285156 135.910156 1123.691406 136.628906 1123.027344 137.289062 C 1122.363281 137.949219 1121.640625 138.539062 1120.859375 139.058594 C 1120.078125 139.578125 1119.253906 140.015625 1118.382812 140.375 C 1117.515625 140.730469 1116.621094 141 1115.699219 141.183594 C 1114.777344 141.367188 1113.847656 141.457031 1112.90625 141.457031 C 1111.96875 141.457031 1111.035156 141.367188 1110.113281 141.183594 C 1109.195312 141 1108.296875 140.730469 1107.429688 140.375 C 1106.5625 140.015625 1105.738281 139.578125 1104.957031 139.058594 C 1104.175781 138.539062 1103.453125 137.949219 1102.785156 137.289062 C 1102.121094 136.628906 1101.527344 135.910156 1101.007812 135.132812 C 1100.484375 134.355469 1100.042969 133.535156 1099.683594 132.671875 C 1099.324219 131.808594 1099.054688 130.921875 1098.871094 130.003906 C 1098.6875 129.085938 1098.59375 128.164062 1098.59375 127.226562 C 1098.59375 126.292969 1098.6875 125.367188 1098.871094 124.453125 C 1099.054688 123.535156 1099.324219 122.644531 1099.683594 121.78125 C 1100.042969 120.921875 1100.484375 120.101562 1101.007812 119.324219 C 1101.527344 118.546875 1102.121094 117.828125 1102.785156 117.167969 C 1103.453125 116.507812 1104.175781 115.917969 1104.957031 115.398438 C 1105.738281 114.878906 1106.5625 114.441406 1107.429688 114.082031 C 1108.296875 113.726562 1109.195312 113.457031 1110.113281 113.273438 C 1111.035156 113.089844 1111.96875 113 1112.90625 113 C 1113.847656 113 1114.777344 113.089844 1115.699219 113.273438 C 1116.621094 113.457031 1117.515625 113.726562 1118.382812 114.082031 C 1119.253906 114.441406 1120.078125 114.878906 1120.859375 115.398438 C 1121.640625 115.917969 1122.363281 116.507812 1123.027344 117.167969 C 1123.691406 117.828125 1124.285156 118.546875 1124.808594 119.324219 C 1125.332031 120.101562 1125.769531 120.921875 1126.128906 121.78125 C 1126.492188 122.644531 1126.761719 123.535156 1126.945312 124.453125 C 1127.128906 125.367188 1127.21875 126.292969 1127.21875 127.226562 Z M 1127.21875 127.226562 "/>
<g clip-path="url(#clip8)" clip-rule="nonzero">
<path style=" stroke:none;fill-rule:nonzero;fill:rgb(0%,76.078796%,79.60968%);fill-opacity:1;" d="M 904.984375 205.589844 C 907.792969 205.425781 909.929688 203.03125 909.765625 200.242188 C 909.519531 196.039062 909.40625 192.207031 909.40625 188.71875 C 909.382812 173.410156 911.628906 164.808594 913.835938 160.316406 L 913.835938 255.171875 C 913.835938 259.488281 917.355469 262.988281 921.699219 262.988281 C 926.042969 262.988281 929.566406 259.488281 929.566406 255.171875 L 929.566406 198.085938 L 932.511719 198.085938 L 932.511719 255.171875 C 932.511719 259.488281 936.035156 262.988281 940.378906 262.988281 C 944.722656 262.988281 948.242188 259.488281 948.242188 255.171875 L 948.242188 160.34375 C 948.621094 161.109375 949 161.992188 949.375 163.023438 C 951.167969 167.960938 952.675781 176.070312 952.671875 188.722656 C 952.671875 192.207031 952.558594 196.039062 952.3125 200.246094 C 952.148438 203.03125 954.289062 205.425781 957.09375 205.589844 C 957.195312 205.597656 957.296875 205.597656 957.394531 205.597656 C 960.070312 205.601562 962.3125 203.523438 962.472656 200.835938 C 962.730469 196.449219 962.847656 192.425781 962.847656 188.722656 C 962.824219 169.632812 959.757812 159.070312 955.574219 152.71875 C 953.484375 149.566406 951.042969 147.542969 948.78125 146.425781 C 946.667969 145.363281 944.804688 145.105469 943.648438 145.078125 C 943.542969 145.070312 943.433594 145.0625 943.328125 145.0625 L 918.75 145.0625 C 918.648438 145.0625 918.550781 145.070312 918.453125 145.078125 C 917.296875 145.101562 915.425781 145.355469 913.292969 146.425781 C 909.871094 148.109375 906.183594 151.800781 903.605469 158.339844 C 900.992188 164.902344 899.238281 174.390625 899.226562 188.71875 C 899.230469 192.421875 899.347656 196.449219 899.605469 200.835938 C 899.765625 203.523438 902.007812 205.597656 904.683594 205.597656 C 904.785156 205.597656 904.882812 205.59375 904.984375 205.589844 Z M 904.984375 205.589844 "/>
</g>
<path style=" stroke:none;fill-rule:nonzero;fill:rgb(0%,76.078796%,79.60968%);fill-opacity:1;" d="M 945.351562 127.226562 C 945.351562 128.164062 945.261719 129.085938 945.078125 130.003906 C 944.894531 130.921875 944.621094 131.808594 944.261719 132.671875 C 943.902344 133.535156 943.460938 134.355469 942.941406 135.132812 C 942.417969 135.910156 941.824219 136.628906 941.160156 137.289062 C 940.496094 137.949219 939.773438 138.539062 938.992188 139.058594 C 938.210938 139.578125 937.386719 140.015625 936.515625 140.375 C 935.648438 140.730469 934.753906 141 933.832031 141.183594 C 932.910156 141.367188 931.980469 141.457031 931.039062 141.457031 C 930.101562 141.457031 929.167969 141.367188 928.246094 141.183594 C 927.324219 141 926.429688 140.730469 925.5625 140.375 C 924.695312 140.015625 923.871094 139.578125 923.089844 139.058594 C 922.308594 138.539062 921.582031 137.949219 920.917969 137.289062 C 920.253906 136.628906 919.660156 135.910156 919.140625 135.132812 C 918.617188 134.355469 918.175781 133.535156 917.816406 132.671875 C 917.457031 131.808594 917.1875 130.921875 917.003906 130.003906 C 916.820312 129.085938 916.726562 128.164062 916.726562 127.226562 C 916.726562 126.292969 916.820312 125.367188 917.003906 124.453125 C 917.1875 123.535156 917.457031 122.644531 917.816406 121.78125 C 918.175781 120.921875 918.617188 120.101562 919.140625 119.324219 C 919.660156 118.546875 920.253906 117.828125 920.917969 117.167969 C 921.582031 116.507812 922.308594 115.917969 923.089844 115.398438 C 923.871094 114.878906 924.695312 114.441406 925.5625 114.082031 C 926.429688 113.726562 927.324219 113.457031 928.246094 113.273438 C 929.167969 113.089844 930.101562 113 931.039062 113 C 931.980469 113 932.910156 113.089844 933.832031 113.273438 C 934.753906 113.457031 935.648438 113.726562 936.515625 114.082031 C 937.386719 114.441406 938.210938 114.878906 938.992188 115.398438 C 939.773438 115.917969 940.496094 116.507812 941.160156 117.167969 C 941.824219 117.828125 942.417969 118.546875 942.941406 119.324219 C 943.460938 120.101562 943.902344 120.921875 944.261719 121.78125 C 944.621094 122.644531 944.894531 123.535156 945.078125 124.453125 C 945.261719 125.367188 945.351562 126.292969 945.351562 127.226562 Z M 945.351562 127.226562 "/>
<g clip-path="url(#clip9)" clip-rule="nonzero">
<path style=" stroke:none;fill-rule:nonzero;fill:rgb(0%,76.078796%,79.60968%);fill-opacity:1;" d="M 812.0625 205.589844 C 814.871094 205.425781 817.011719 203.03125 816.84375 200.242188 C 816.597656 196.039062 816.484375 192.207031 816.484375 188.71875 C 816.460938 173.410156 818.707031 164.808594 820.914062 160.316406 L 820.914062 255.171875 C 820.914062 259.488281 824.4375 262.988281 828.777344 262.988281 C 833.121094 262.988281 836.644531 259.488281 836.644531 255.171875 L 836.644531 198.085938 L 839.59375 198.085938 L 839.59375 255.171875 C 839.59375 259.488281 843.113281 262.988281 847.457031 262.988281 C 851.800781 262.988281 855.320312 259.488281 855.320312 255.171875 L 855.320312 160.34375 C 855.699219 161.109375 856.078125 161.992188 856.453125 163.023438 C 858.25 167.960938 859.757812 176.070312 859.75 188.722656 C 859.75 192.207031 859.636719 196.039062 859.390625 200.246094 C 859.226562 203.03125 861.367188 205.425781 864.175781 205.589844 C 864.273438 205.597656 864.375 205.597656 864.472656 205.597656 C 867.148438 205.601562 869.394531 203.523438 869.550781 200.835938 C 869.808594 196.449219 869.929688 192.425781 869.929688 188.722656 C 869.902344 169.632812 866.835938 159.070312 862.652344 152.71875 C 860.5625 149.566406 858.121094 147.542969 855.863281 146.425781 C 853.746094 145.363281 851.882812 145.105469 850.726562 145.078125 C 850.621094 145.070312 850.515625 145.0625 850.40625 145.0625 L 825.832031 145.0625 C 825.730469 145.0625 825.632812 145.070312 825.53125 145.078125 C 824.375 145.101562 822.503906 145.355469 820.371094 146.425781 C 816.953125 148.109375 813.261719 151.800781 810.683594 158.339844 C 808.070312 164.902344 806.316406 174.390625 806.304688 188.71875 C 806.308594 192.421875 806.425781 196.449219 806.6875 200.835938 C 806.84375 203.523438 809.085938 205.597656 811.761719 205.597656 C 811.863281 205.597656 811.960938 205.59375 812.0625 205.589844 Z M 812.0625 205.589844 "/>
</g>
<path style=" stroke:none;fill-rule:nonzero;fill:rgb(0%,76.078796%,79.60968%);fill-opacity:1;" d="M 852.429688 127.226562 C 852.429688 128.164062 852.339844 129.085938 852.15625 130.003906 C 851.972656 130.921875 851.703125 131.808594 851.34375 132.671875 C 850.980469 133.535156 850.542969 134.355469 850.019531 135.132812 C 849.496094 135.910156 848.902344 136.628906 848.238281 137.289062 C 847.574219 137.949219 846.851562 138.539062 846.070312 139.058594 C 845.289062 139.578125 844.464844 140.015625 843.597656 140.375 C 842.726562 140.730469 841.832031 141 840.910156 141.183594 C 839.988281 141.367188 839.058594 141.457031 838.117188 141.457031 C 837.179688 141.457031 836.25 141.367188 835.328125 141.183594 C 834.40625 141 833.511719 140.730469 832.640625 140.375 C 831.773438 140.015625 830.949219 139.578125 830.167969 139.058594 C 829.386719 138.539062 828.664062 137.949219 828 137.289062 C 827.332031 136.628906 826.742188 135.910156 826.21875 135.132812 C 825.695312 134.355469 825.253906 133.535156 824.894531 132.671875 C 824.535156 131.808594 824.265625 130.921875 824.082031 130.003906 C 823.898438 129.085938 823.804688 128.164062 823.804688 127.226562 C 823.804688 126.292969 823.898438 125.367188 824.082031 124.453125 C 824.265625 123.535156 824.535156 122.644531 824.894531 121.78125 C 825.253906 120.921875 825.695312 120.101562 826.21875 119.324219 C 826.742188 118.546875 827.332031 117.828125 828 117.167969 C 828.664062 116.507812 829.386719 115.917969 830.167969 115.398438 C 830.949219 114.878906 831.773438 114.441406 832.640625 114.082031 C 833.511719 113.726562 834.40625 113.457031 835.328125 113.273438 C 836.25 113.089844 837.179688 113 838.117188 113 C 839.058594 113 839.988281 113.089844 840.910156 113.273438 C 841.832031 113.457031 842.726562 113.726562 843.597656 114.082031 C 844.464844 114.441406 845.289062 114.878906 846.070312 115.398438 C 846.851562 115.917969 847.574219 116.507812 848.238281 117.167969 C 848.902344 117.828125 849.496094 118.546875 850.019531 119.324219 C 850.542969 120.101562 850.980469 120.921875 851.34375 121.78125 C 851.703125 122.644531 851.972656 123.535156 852.15625 124.453125 C 852.339844 125.367188 852.429688 126.292969 852.429688 127.226562 Z M 852.429688 127.226562 "/>
<g clip-path="url(#clip10)" clip-rule="nonzero">
<path style=" stroke:none;fill-rule:nonzero;fill:rgb(0%,76.078796%,79.60968%);fill-opacity:1;" d="M 721.140625 205.589844 C 723.945312 205.425781 726.085938 203.03125 725.921875 200.242188 C 725.675781 196.039062 725.5625 192.207031 725.5625 188.71875 C 725.539062 173.410156 727.785156 164.808594 729.992188 160.316406 L 729.992188 255.171875 C 729.992188 259.488281 733.511719 262.988281 737.855469 262.988281 C 742.199219 262.988281 745.722656 259.488281 745.722656 255.171875 L 745.722656 198.085938 L 748.667969 198.085938 L 748.667969 255.171875 C 748.667969 259.488281 752.191406 262.988281 756.535156 262.988281 C 760.878906 262.988281 764.398438 259.488281 764.398438 255.171875 L 764.398438 160.34375 C 764.777344 161.109375 765.15625 161.992188 765.53125 163.023438 C 767.324219 167.960938 768.832031 176.070312 768.828125 188.722656 C 768.828125 192.207031 768.714844 196.039062 768.46875 200.246094 C 768.304688 203.03125 770.445312 205.425781 773.25 205.589844 C 773.351562 205.597656 773.453125 205.597656 773.550781 205.597656 C 776.226562 205.601562 778.46875 203.523438 778.628906 200.835938 C 778.886719 196.449219 779.003906 192.425781 779.003906 188.722656 C 778.980469 169.632812 775.914062 159.070312 771.730469 152.71875 C 769.640625 149.566406 767.199219 147.542969 764.9375 146.425781 C 762.824219 145.363281 760.960938 145.105469 759.804688 145.078125 C 759.699219 145.070312 759.589844 145.0625 759.484375 145.0625 L 734.90625 145.0625 C 734.804688 145.0625 734.707031 145.070312 734.609375 145.078125 C 733.453125 145.101562 731.578125 145.355469 729.449219 146.425781 C 726.027344 148.109375 722.339844 151.800781 719.757812 158.339844 C 717.148438 164.902344 715.394531 174.390625 715.382812 188.71875 C 715.386719 192.421875 715.503906 196.449219 715.761719 200.835938 C 715.921875 203.523438 718.164062 205.597656 720.839844 205.597656 C 720.941406 205.597656 721.039062 205.59375 721.140625 205.589844 Z M 721.140625 205.589844 "/>
</g>
<path style=" stroke:none;fill-rule:nonzero;fill:rgb(0%,76.078796%,79.60968%);fill-opacity:1;" d="M 761.507812 127.226562 C 761.507812 128.164062 761.417969 129.085938 761.234375 130.003906 C 761.050781 130.921875 760.777344 131.808594 760.417969 132.671875 C 760.058594 133.535156 759.617188 134.355469 759.097656 135.132812 C 758.574219 135.910156 757.980469 136.628906 757.316406 137.289062 C 756.652344 137.949219 755.929688 138.539062 755.148438 139.058594 C 754.367188 139.578125 753.542969 140.015625 752.671875 140.375 C 751.804688 140.730469 750.910156 141 749.988281 141.183594 C 749.066406 141.367188 748.136719 141.457031 747.195312 141.457031 C 746.257812 141.457031 745.324219 141.367188 744.402344 141.183594 C 743.480469 141 742.585938 140.730469 741.71875 140.375 C 740.851562 140.015625 740.027344 139.578125 739.246094 139.058594 C 738.464844 138.539062 737.738281 137.949219 737.074219 137.289062 C 736.410156 136.628906 735.816406 135.910156 735.296875 135.132812 C 734.773438 134.355469 734.332031 133.535156 733.972656 132.671875 C 733.613281 131.808594 733.339844 130.921875 733.160156 130.003906 C 732.976562 129.085938 732.882812 128.164062 732.882812 127.226562 C 732.882812 126.292969 732.976562 125.367188 733.160156 124.453125 C 733.339844 123.535156 733.613281 122.644531 733.972656 121.78125 C 734.332031 120.921875 734.773438 120.101562 735.296875 119.324219 C 735.816406 118.546875 736.410156 117.828125 737.074219 117.167969 C 737.738281 116.507812 738.464844 115.917969 739.246094 115.398438 C 740.027344 114.878906 740.851562 114.441406 741.71875 114.082031 C 742.585938 113.726562 743.480469 113.457031 744.402344 113.273438 C 745.324219 113.089844 746.257812 113 747.195312 113 C 748.136719 113 749.066406 113.089844 749.988281 113.273438 C 750.910156 113.457031 751.804688 113.726562 752.671875 114.082031 C 753.542969 114.441406 754.367188 114.878906 755.148438 115.398438 C 755.929688 115.917969 756.652344 116.507812 757.316406 117.167969 C 757.980469 117.828125 758.574219 118.546875 759.097656 119.324219 C 759.617188 120.101562 760.058594 120.921875 760.417969 121.78125 C 760.777344 122.644531 761.050781 123.535156 761.234375 124.453125 C 761.417969 125.367188 761.507812 126.292969 761.507812 127.226562 Z M 761.507812 127.226562 "/>
<g clip-path="url(#clip11)" clip-rule="nonzero">
<path style=" stroke:none;fill-rule:nonzero;fill:rgb(0%,76.078796%,79.60968%);fill-opacity:1;" d="M 548.25 205.589844 C 551.054688 205.425781 553.195312 203.03125 553.03125 200.242188 C 552.785156 196.039062 552.671875 192.207031 552.671875 188.71875 C 552.648438 173.410156 554.894531 164.808594 557.101562 160.316406 L 557.101562 255.171875 C 557.101562 259.488281 560.621094 262.988281 564.964844 262.988281 C 569.308594 262.988281 572.828125 259.488281 572.828125 255.171875 L 572.828125 198.085938 L 575.777344 198.085938 L 575.777344 255.171875 C 575.777344 259.488281 579.300781 262.988281 583.644531 262.988281 C 587.984375 262.988281 591.507812 259.488281 591.507812 255.171875 L 591.507812 160.34375 C 591.886719 161.109375 592.265625 161.992188 592.640625 163.023438 C 594.433594 167.960938 595.941406 176.070312 595.9375 188.722656 C 595.9375 192.207031 595.824219 196.039062 595.578125 200.246094 C 595.414062 203.03125 597.554688 205.425781 600.359375 205.589844 C 600.460938 205.597656 600.5625 205.597656 600.660156 205.597656 C 603.335938 205.601562 605.578125 203.523438 605.738281 200.835938 C 605.992188 196.449219 606.113281 192.425781 606.113281 188.722656 C 606.089844 169.632812 603.023438 159.070312 598.839844 152.71875 C 596.75 149.566406 594.308594 147.542969 592.046875 146.425781 C 589.933594 145.363281 588.070312 145.105469 586.914062 145.078125 C 586.808594 145.070312 586.699219 145.0625 586.589844 145.0625 L 562.015625 145.0625 C 561.914062 145.0625 561.816406 145.070312 561.71875 145.078125 C 560.5625 145.101562 558.6875 145.355469 556.558594 146.425781 C 553.136719 148.109375 549.449219 151.800781 546.867188 158.339844 C 544.257812 164.902344 542.5 174.390625 542.492188 188.71875 C 542.492188 192.421875 542.613281 196.449219 542.871094 200.835938 C 543.03125 203.523438 545.273438 205.597656 547.949219 205.597656 C 548.046875 205.597656 548.148438 205.59375 548.25 205.589844 Z M 548.25 205.589844 "/>
</g>
<path style=" stroke:none;fill-rule:nonzero;fill:rgb(0%,76.078796%,79.60968%);fill-opacity:1;" d="M 588.617188 127.226562 C 588.617188 128.164062 588.527344 129.085938 588.34375 130.003906 C 588.160156 130.921875 587.886719 131.808594 587.527344 132.671875 C 587.167969 133.535156 586.726562 134.355469 586.207031 135.132812 C 585.683594 135.910156 585.089844 136.628906 584.425781 137.289062 C 583.761719 137.949219 583.039062 138.539062 582.257812 139.058594 C 581.476562 139.578125 580.652344 140.015625 579.78125 140.375 C 578.914062 140.730469 578.019531 141 577.097656 141.183594 C 576.175781 141.367188 575.246094 141.457031 574.304688 141.457031 C 573.367188 141.457031 572.433594 141.367188 571.511719 141.183594 C 570.589844 141 569.695312 140.730469 568.828125 140.375 C 567.960938 140.015625 567.136719 139.578125 566.351562 139.058594 C 565.570312 138.539062 564.847656 137.949219 564.183594 137.289062 C 563.519531 136.628906 562.925781 135.910156 562.40625 135.132812 C 561.882812 134.355469 561.441406 133.535156 561.082031 132.671875 C 560.722656 131.808594 560.449219 130.921875 560.265625 130.003906 C 560.085938 129.085938 559.992188 128.164062 559.992188 127.226562 C 559.992188 126.292969 560.085938 125.367188 560.265625 124.453125 C 560.449219 123.535156 560.722656 122.644531 561.082031 121.78125 C 561.441406 120.921875 561.882812 120.101562 562.40625 119.324219 C 562.925781 118.546875 563.519531 117.828125 564.183594 117.167969 C 564.847656 116.507812 565.570312 115.917969 566.351562 115.398438 C 567.136719 114.878906 567.960938 114.441406 568.828125 114.082031 C 569.695312 113.726562 570.589844 113.457031 571.511719 113.273438 C 572.433594 113.089844 573.367188 113 574.304688 113 C 575.246094 113 576.175781 113.089844 577.097656 113.273438 C 578.019531 113.457031 578.914062 113.726562 579.78125 114.082031 C 580.652344 114.441406 581.476562 114.878906 582.257812 115.398438 C 583.039062 115.917969 583.761719 116.507812 584.425781 117.167969 C 585.089844 117.828125 585.683594 118.546875 586.207031 119.324219 C 586.726562 120.101562 587.167969 120.921875 587.527344 121.78125 C 587.886719 122.644531 588.160156 123.535156 588.34375 124.453125 C 588.527344 125.367188 588.617188 126.292969 588.617188 127.226562 Z M 588.617188 127.226562 "/>
<g clip-path="url(#clip12)" clip-rule="nonzero">
<path style=" stroke:none;fill-rule:nonzero;fill:rgb(0%,76.078796%,79.60968%);fill-opacity:1;" d="M 460.324219 205.589844 C 463.132812 205.425781 465.269531 203.03125 465.105469 200.242188 C 464.859375 196.039062 464.746094 192.207031 464.746094 188.71875 C 464.722656 173.410156 466.96875 164.808594 469.175781 160.316406 L 469.175781 255.171875 C 469.175781 259.488281 472.699219 262.988281 477.039062 262.988281 C 481.382812 262.988281 484.90625 259.488281 484.90625 255.171875 L 484.90625 198.085938 L 487.851562 198.085938 L 487.851562 255.171875 C 487.851562 259.488281 491.375 262.988281 495.71875 262.988281 C 500.0625 262.988281 503.582031 259.488281 503.582031 255.171875 L 503.582031 160.34375 C 503.960938 161.109375 504.339844 161.992188 504.714844 163.023438 C 506.507812 167.960938 508.019531 176.070312 508.011719 188.722656 C 508.011719 192.207031 507.898438 196.039062 507.652344 200.246094 C 507.488281 203.03125 509.628906 205.425781 512.4375 205.589844 C 512.535156 205.597656 512.636719 205.597656 512.734375 205.597656 C 515.410156 205.601562 517.65625 203.523438 517.8125 200.835938 C 518.070312 196.449219 518.1875 192.425781 518.1875 188.722656 C 518.164062 169.632812 515.097656 159.070312 510.914062 152.71875 C 508.824219 149.566406 506.382812 147.542969 504.121094 146.425781 C 502.007812 145.363281 500.144531 145.105469 498.988281 145.078125 C 498.882812 145.070312 498.777344 145.0625 498.667969 145.0625 L 474.089844 145.0625 C 473.992188 145.0625 473.890625 145.070312 473.792969 145.078125 C 472.636719 145.101562 470.765625 145.355469 468.632812 146.425781 C 465.210938 148.109375 461.523438 151.800781 458.945312 158.339844 C 456.332031 164.902344 454.578125 174.390625 454.566406 188.71875 C 454.570312 192.421875 454.6875 196.449219 454.945312 200.835938 C 455.105469 203.523438 457.347656 205.597656 460.023438 205.597656 C 460.125 205.597656 460.222656 205.59375 460.324219 205.589844 Z M 460.324219 205.589844 "/>
</g>
<path style=" stroke:none;fill-rule:nonzero;fill:rgb(0%,76.078796%,79.60968%);fill-opacity:1;" d="M 500.691406 127.226562 C 500.691406 128.164062 500.601562 129.085938 500.417969 130.003906 C 500.234375 130.921875 499.964844 131.808594 499.601562 132.671875 C 499.242188 133.535156 498.804688 134.355469 498.28125 135.132812 C 497.757812 135.910156 497.164062 136.628906 496.5 137.289062 C 495.835938 137.949219 495.113281 138.539062 494.332031 139.058594 C 493.550781 139.578125 492.726562 140.015625 491.855469 140.375 C 490.988281 140.730469 490.09375 141 489.171875 141.183594 C 488.25 141.367188 487.320312 141.457031 486.378906 141.457031 C 485.441406 141.457031 484.507812 141.367188 483.589844 141.183594 C 482.667969 141 481.769531 140.730469 480.902344 140.375 C 480.035156 140.015625 479.210938 139.578125 478.429688 139.058594 C 477.648438 138.539062 476.925781 137.949219 476.257812 137.289062 C 475.59375 136.628906 475 135.910156 474.480469 135.132812 C 473.957031 134.355469 473.515625 133.535156 473.15625 132.671875 C 472.796875 131.808594 472.527344 130.921875 472.34375 130.003906 C 472.160156 129.085938 472.066406 128.164062 472.066406 127.226562 C 472.066406 126.292969 472.160156 125.367188 472.34375 124.453125 C 472.527344 123.535156 472.796875 122.644531 473.15625 121.78125 C 473.515625 120.921875 473.957031 120.101562 474.480469 119.324219 C 475 118.546875 475.59375 117.828125 476.257812 117.167969 C 476.925781 116.507812 477.648438 115.917969 478.429688 115.398438 C 479.210938 114.878906 480.035156 114.441406 480.902344 114.082031 C 481.769531 113.726562 482.667969 113.457031 483.589844 113.273438 C 484.507812 113.089844 485.441406 113 486.378906 113 C 487.320312 113 488.25 113.089844 489.171875 113.273438 C 490.09375 113.457031 490.988281 113.726562 491.859375 114.082031 C 492.726562 114.441406 493.550781 114.878906 494.332031 115.398438 C 495.113281 115.917969 495.835938 116.507812 496.5 117.167969 C 497.164062 117.828125 497.757812 118.546875 498.28125 119.324219 C 498.804688 120.101562 499.242188 120.921875 499.601562 121.78125 C 499.964844 122.644531 500.234375 123.535156 500.417969 124.453125 C 500.601562 125.367188 500.691406 126.292969 500.691406 127.226562 Z M 500.691406 127.226562 "/>
<g clip-path="url(#clip13)" clip-rule="nonzero">
<path style=" stroke:none;fill-rule:nonzero;fill:rgb(0%,76.078796%,79.60968%);fill-opacity:1;" d="M 371.402344 205.589844 C 374.207031 205.425781 376.347656 203.03125 376.183594 200.242188 C 375.933594 196.039062 375.820312 192.207031 375.824219 188.71875 C 375.800781 173.410156 378.042969 164.808594 380.25 160.316406 L 380.25 255.171875 C 380.25 259.488281 383.773438 262.988281 388.113281 262.988281 C 392.457031 262.988281 395.980469 259.488281 395.980469 255.171875 L 395.980469 198.085938 L 398.929688 198.085938 L 398.929688 255.171875 C 398.929688 259.488281 402.453125 262.988281 406.792969 262.988281 C 411.136719 262.988281 414.660156 259.488281 414.660156 255.171875 L 414.660156 160.34375 C 415.035156 161.109375 415.417969 161.992188 415.792969 163.023438 C 417.585938 167.960938 419.09375 176.070312 419.085938 188.722656 C 419.085938 192.207031 418.976562 196.039062 418.726562 200.246094 C 418.5625 203.03125 420.707031 205.425781 423.511719 205.589844 C 423.613281 205.597656 423.710938 205.597656 423.8125 205.597656 C 426.488281 205.601562 428.730469 203.523438 428.886719 200.835938 C 429.144531 196.449219 429.265625 192.425781 429.265625 188.722656 C 429.242188 169.632812 426.171875 159.070312 421.992188 152.71875 C 419.902344 149.566406 417.457031 147.542969 415.199219 146.425781 C 413.085938 145.363281 411.21875 145.105469 410.066406 145.078125 C 409.957031 145.070312 409.851562 145.0625 409.742188 145.0625 L 385.167969 145.0625 C 385.066406 145.0625 384.96875 145.070312 384.867188 145.078125 C 383.714844 145.101562 381.839844 145.355469 379.710938 146.425781 C 376.289062 148.109375 372.601562 151.800781 370.019531 158.339844 C 367.40625 164.902344 365.652344 174.390625 365.644531 188.71875 C 365.644531 192.421875 365.765625 196.449219 366.023438 200.835938 C 366.179688 203.523438 368.425781 205.597656 371.097656 205.597656 C 371.199219 205.597656 371.300781 205.59375 371.402344 205.589844 Z M 371.402344 205.589844 "/>
</g>
<path style=" stroke:none;fill-rule:nonzero;fill:rgb(0%,76.078796%,79.60968%);fill-opacity:1;" d="M 411.769531 127.226562 C 411.769531 128.164062 411.675781 129.085938 411.492188 130.003906 C 411.308594 130.921875 411.039062 131.808594 410.679688 132.671875 C 410.320312 133.535156 409.878906 134.355469 409.355469 135.132812 C 408.835938 135.910156 408.242188 136.628906 407.578125 137.289062 C 406.910156 137.949219 406.1875 138.539062 405.40625 139.058594 C 404.625 139.578125 403.800781 140.015625 402.933594 140.375 C 402.066406 140.730469 401.171875 141 400.25 141.183594 C 399.328125 141.367188 398.394531 141.457031 397.457031 141.457031 C 396.515625 141.457031 395.585938 141.367188 394.664062 141.183594 C 393.742188 141 392.847656 140.730469 391.980469 140.375 C 391.109375 140.015625 390.285156 139.578125 389.503906 139.058594 C 388.722656 138.539062 388 137.949219 387.335938 137.289062 C 386.671875 136.628906 386.078125 135.910156 385.554688 135.132812 C 385.035156 134.355469 384.59375 133.535156 384.234375 132.671875 C 383.875 131.808594 383.601562 130.921875 383.417969 130.003906 C 383.234375 129.085938 383.144531 128.164062 383.144531 127.226562 C 383.144531 126.292969 383.234375 125.367188 383.417969 124.453125 C 383.601562 123.535156 383.875 122.644531 384.234375 121.78125 C 384.59375 120.921875 385.035156 120.101562 385.554688 119.324219 C 386.078125 118.546875 386.671875 117.828125 387.335938 117.167969 C 388 116.507812 388.722656 115.917969 389.503906 115.398438 C 390.285156 114.878906 391.109375 114.441406 391.980469 114.082031 C 392.847656 113.726562 393.742188 113.457031 394.664062 113.273438 C 395.585938 113.089844 396.515625 113 397.457031 113 C 398.394531 113 399.328125 113.089844 400.25 113.273438 C 401.171875 113.457031 402.066406 113.726562 402.933594 114.082031 C 403.800781 114.441406 404.625 114.878906 405.40625 115.398438 C 406.1875 115.917969 406.910156 116.507812 407.578125 117.167969 C 408.242188 117.828125 408.835938 118.546875 409.355469 119.324219 C 409.878906 120.101562 410.320312 120.921875 410.679688 121.78125 C 411.039062 122.644531 411.308594 123.535156 411.492188 124.453125 C 411.675781 125.367188 411.769531 126.292969 411.769531 127.226562 Z M 411.769531 127.226562 "/>
<g clip-path="url(#clip14)" clip-rule="nonzero">
<path style=" stroke:none;fill-rule:nonzero;fill:rgb(0%,76.078796%,79.60968%);fill-opacity:1;" d="M 197.226562 205.589844 C 200.03125 205.425781 202.171875 203.03125 202.007812 200.242188 C 201.757812 196.039062 201.644531 192.207031 201.648438 188.71875 C 201.625 173.410156 203.867188 164.808594 206.074219 160.316406 L 206.074219 255.171875 C 206.074219 259.488281 209.597656 262.988281 213.9375 262.988281 C 218.28125 262.988281 221.804688 259.488281 221.804688 255.171875 L 221.804688 198.085938 L 224.753906 198.085938 L 224.753906 255.171875 C 224.753906 259.488281 228.277344 262.988281 232.617188 262.988281 C 236.960938 262.988281 240.484375 259.488281 240.484375 255.171875 L 240.484375 160.34375 C 240.859375 161.109375 241.242188 161.992188 241.617188 163.023438 C 243.410156 167.960938 244.917969 176.070312 244.910156 188.722656 C 244.910156 192.207031 244.796875 196.039062 244.550781 200.246094 C 244.386719 203.03125 246.53125 205.425781 249.335938 205.589844 C 249.4375 205.597656 249.535156 205.597656 249.636719 205.597656 C 252.3125 205.601562 254.554688 203.523438 254.710938 200.835938 C 254.96875 196.449219 255.089844 192.425781 255.089844 188.722656 C 255.0625 169.632812 251.996094 159.070312 247.816406 152.71875 C 245.726562 149.566406 243.28125 147.542969 241.023438 146.425781 C 238.910156 145.363281 237.042969 145.105469 235.886719 145.078125 C 235.78125 145.070312 235.675781 145.0625 235.566406 145.0625 L 210.992188 145.0625 C 210.890625 145.0625 210.792969 145.070312 210.691406 145.078125 C 209.539062 145.101562 207.664062 145.355469 205.535156 146.425781 C 202.113281 148.109375 198.425781 151.800781 195.84375 158.339844 C 193.230469 164.902344 191.476562 174.390625 191.46875 188.71875 C 191.46875 192.421875 191.589844 196.449219 191.847656 200.835938 C 192.003906 203.523438 194.25 205.597656 196.921875 205.597656 C 197.023438 205.597656 197.125 205.59375 197.226562 205.589844 Z M 197.226562 205.589844 "/>
</g>
<path style=" stroke:none;fill-rule:nonzero;fill:rgb(0%,76.078796%,79.60968%);fill-opacity:1;" d="M 237.59375 127.226562 C 237.59375 128.164062 237.5 129.085938 237.316406 130.003906 C 237.132812 130.921875 236.863281 131.808594 236.503906 132.671875 C 236.144531 133.535156 235.703125 134.355469 235.179688 135.132812 C 234.660156 135.910156 234.066406 136.628906 233.402344 137.289062 C 232.734375 137.949219 232.011719 138.539062 231.230469 139.058594 C 230.449219 139.578125 229.625 140.015625 228.757812 140.375 C 227.890625 140.730469 226.992188 141 226.074219 141.183594 C 225.152344 141.367188 224.21875 141.457031 223.28125 141.457031 C 222.339844 141.457031 221.410156 141.367188 220.488281 141.183594 C 219.566406 141 218.671875 140.730469 217.804688 140.375 C 216.933594 140.015625 216.109375 139.578125 215.328125 139.058594 C 214.546875 138.539062 213.824219 137.949219 213.160156 137.289062 C 212.496094 136.628906 211.902344 135.910156 211.378906 135.132812 C 210.855469 134.355469 210.417969 133.535156 210.058594 132.671875 C 209.695312 131.808594 209.425781 130.921875 209.242188 130.003906 C 209.058594 129.085938 208.96875 128.164062 208.96875 127.226562 C 208.96875 126.292969 209.058594 125.367188 209.242188 124.453125 C 209.425781 123.535156 209.695312 122.644531 210.058594 121.78125 C 210.417969 120.921875 210.855469 120.101562 211.378906 119.324219 C 211.902344 118.546875 212.496094 117.828125 213.160156 117.167969 C 213.824219 116.507812 214.546875 115.917969 215.328125 115.398438 C 216.109375 114.878906 216.933594 114.441406 217.804688 114.082031 C 218.671875 113.726562 219.566406 113.457031 220.488281 113.273438 C 221.410156 113.089844 222.339844 113 223.28125 113 C 224.21875 113 225.152344 113.089844 226.074219 113.273438 C 226.992188 113.457031 227.890625 113.726562 228.757812 114.082031 C 229.625 114.441406 230.449219 114.878906 231.230469 115.398438 C 232.011719 115.917969 232.734375 116.507812 233.402344 117.167969 C 234.066406 117.828125 234.660156 118.546875 235.179688 119.324219 C 235.703125 120.101562 236.144531 120.921875 236.503906 121.78125 C 236.863281 122.644531 237.132812 123.535156 237.316406 124.453125 C 237.5 125.367188 237.59375 126.292969 237.59375 127.226562 Z M 237.59375 127.226562 "/>
</g>
</svg>
